<mxfile host="Electron" modified="2023-10-20T00:33:50.828Z" agent="Mozilla/5.0 (Windows NT 10.0; Win64; x64) AppleWebKit/537.36 (KHTML, like Gecko) draw.io/22.0.3 Chrome/114.0.5735.289 Electron/25.8.4 Safari/537.36" etag="3x1Uzh5cOhllS4aLb3TK" version="22.0.3" type="device">
  <diagram name="Page-1" id="90a13364-a465-7bf4-72fc-28e22215d7a0">
    <mxGraphModel dx="993" dy="696" grid="1" gridSize="10" guides="1" tooltips="1" connect="1" arrows="1" fold="1" page="1" pageScale="1.5" pageWidth="1169" pageHeight="826" background="none" math="0" shadow="0">
      <root>
        <mxCell id="0" style=";html=1;" />
        <mxCell id="1" style=";html=1;" parent="0" />
        <mxCell id="3a17f1ce550125da-2" value="CPU" style="whiteSpace=wrap;html=1;shadow=1;fontSize=18;fillColor=#f0a30a;strokeColor=#E6D0DE;fontColor=#000000;" parent="1" vertex="1">
          <mxGeometry x="780" y="470" width="803" height="106" as="geometry" />
        </mxCell>
        <mxCell id="Q0GtenQzzXFl3l4ukwLi-59" value="UART_4" style="whiteSpace=wrap;html=1;shadow=1;fontSize=18;fillColor=#1ba1e2;strokeColor=#006EAF;fontColor=#ffffff;" vertex="1" parent="1">
          <mxGeometry x="780" y="341.52941176470586" width="120" height="42.35294117647059" as="geometry" />
        </mxCell>
        <mxCell id="Q0GtenQzzXFl3l4ukwLi-60" value="UART Controller" style="whiteSpace=wrap;html=1;shadow=1;fontSize=18;fillColor=#0050ef;strokeColor=#001DBC;fontColor=#ffffff;" vertex="1" parent="1">
          <mxGeometry x="780" y="405.7647058823529" width="120" height="42.35294117647059" as="geometry" />
        </mxCell>
        <mxCell id="Q0GtenQzzXFl3l4ukwLi-61" value="" style="group" vertex="1" connectable="0" parent="1">
          <mxGeometry x="810" y="383.88235294117646" width="60" height="21.88235294117647" as="geometry" />
        </mxCell>
        <mxCell id="Q0GtenQzzXFl3l4ukwLi-62" style="edgeStyle=orthogonalEdgeStyle;rounded=0;orthogonalLoop=1;jettySize=auto;html=1;exitX=0.75;exitY=1;exitDx=0;exitDy=0;entryX=0.75;entryY=0;entryDx=0;entryDy=0;" edge="1" parent="Q0GtenQzzXFl3l4ukwLi-61">
          <mxGeometry relative="1" as="geometry">
            <mxPoint x="60" as="sourcePoint" />
            <mxPoint x="60" y="21.88235294117647" as="targetPoint" />
          </mxGeometry>
        </mxCell>
        <mxCell id="Q0GtenQzzXFl3l4ukwLi-63" style="edgeStyle=orthogonalEdgeStyle;rounded=0;orthogonalLoop=1;jettySize=auto;html=1;exitX=0.25;exitY=0;exitDx=0;exitDy=0;entryX=0.25;entryY=1;entryDx=0;entryDy=0;" edge="1" parent="Q0GtenQzzXFl3l4ukwLi-61">
          <mxGeometry relative="1" as="geometry">
            <mxPoint y="21.88235294117647" as="sourcePoint" />
            <mxPoint as="targetPoint" />
          </mxGeometry>
        </mxCell>
        <mxCell id="Q0GtenQzzXFl3l4ukwLi-64" value="" style="group" vertex="1" connectable="0" parent="1">
          <mxGeometry x="810" y="448.11764705882354" width="60" height="21.88235294117647" as="geometry" />
        </mxCell>
        <mxCell id="Q0GtenQzzXFl3l4ukwLi-65" style="edgeStyle=orthogonalEdgeStyle;rounded=0;orthogonalLoop=1;jettySize=auto;html=1;exitX=0.75;exitY=1;exitDx=0;exitDy=0;entryX=0.75;entryY=0;entryDx=0;entryDy=0;" edge="1" parent="Q0GtenQzzXFl3l4ukwLi-64">
          <mxGeometry relative="1" as="geometry">
            <mxPoint x="60" as="sourcePoint" />
            <mxPoint x="60" y="21.88235294117647" as="targetPoint" />
          </mxGeometry>
        </mxCell>
        <mxCell id="Q0GtenQzzXFl3l4ukwLi-66" style="edgeStyle=orthogonalEdgeStyle;rounded=0;orthogonalLoop=1;jettySize=auto;html=1;exitX=0.25;exitY=0;exitDx=0;exitDy=0;entryX=0.25;entryY=1;entryDx=0;entryDy=0;" edge="1" parent="Q0GtenQzzXFl3l4ukwLi-64">
          <mxGeometry relative="1" as="geometry">
            <mxPoint y="21.88235294117647" as="sourcePoint" />
            <mxPoint as="targetPoint" />
          </mxGeometry>
        </mxCell>
        <mxCell id="Q0GtenQzzXFl3l4ukwLi-67" value="Program/Debug Interface (Virtual COM Port)" style="whiteSpace=wrap;html=1;shadow=1;fontSize=18;fillColor=#60a917;strokeColor=#2D7600;fontColor=#ffffff;" vertex="1" parent="1">
          <mxGeometry x="780" y="278" width="220" height="42.35294117647059" as="geometry" />
        </mxCell>
        <mxCell id="Q0GtenQzzXFl3l4ukwLi-71" value="" style="group" vertex="1" connectable="0" parent="1">
          <mxGeometry x="810" y="320.3529411764706" width="60" height="21.88235294117647" as="geometry" />
        </mxCell>
        <mxCell id="Q0GtenQzzXFl3l4ukwLi-72" style="edgeStyle=orthogonalEdgeStyle;rounded=0;orthogonalLoop=1;jettySize=auto;html=1;exitX=0.75;exitY=1;exitDx=0;exitDy=0;entryX=0.75;entryY=0;entryDx=0;entryDy=0;" edge="1" parent="Q0GtenQzzXFl3l4ukwLi-71">
          <mxGeometry relative="1" as="geometry">
            <mxPoint x="60" as="sourcePoint" />
            <mxPoint x="60" y="21.88235294117647" as="targetPoint" />
          </mxGeometry>
        </mxCell>
        <mxCell id="Q0GtenQzzXFl3l4ukwLi-73" style="edgeStyle=orthogonalEdgeStyle;rounded=0;orthogonalLoop=1;jettySize=auto;html=1;exitX=0.25;exitY=0;exitDx=0;exitDy=0;entryX=0.25;entryY=1;entryDx=0;entryDy=0;" edge="1" parent="Q0GtenQzzXFl3l4ukwLi-71">
          <mxGeometry relative="1" as="geometry">
            <mxPoint y="21.88235294117647" as="sourcePoint" />
            <mxPoint as="targetPoint" />
          </mxGeometry>
        </mxCell>
        <mxCell id="Q0GtenQzzXFl3l4ukwLi-74" value="" style="group" vertex="1" connectable="0" parent="1">
          <mxGeometry x="922" y="320.3529411764706" width="60" height="148.23529411764707" as="geometry" />
        </mxCell>
        <mxCell id="Q0GtenQzzXFl3l4ukwLi-75" style="edgeStyle=orthogonalEdgeStyle;rounded=0;orthogonalLoop=1;jettySize=auto;html=1;exitX=0.75;exitY=1;exitDx=0;exitDy=0;entryX=0.75;entryY=0;entryDx=0;entryDy=0;" edge="1" parent="Q0GtenQzzXFl3l4ukwLi-74">
          <mxGeometry relative="1" as="geometry">
            <mxPoint x="60" as="sourcePoint" />
            <mxPoint x="60" y="148.23529411764707" as="targetPoint" />
          </mxGeometry>
        </mxCell>
        <mxCell id="Q0GtenQzzXFl3l4ukwLi-76" style="edgeStyle=orthogonalEdgeStyle;rounded=0;orthogonalLoop=1;jettySize=auto;html=1;exitX=0.25;exitY=0;exitDx=0;exitDy=0;entryX=0.25;entryY=1;entryDx=0;entryDy=0;" edge="1" parent="Q0GtenQzzXFl3l4ukwLi-74">
          <mxGeometry relative="1" as="geometry">
            <mxPoint y="148.23529411764707" as="sourcePoint" />
            <mxPoint as="targetPoint" />
          </mxGeometry>
        </mxCell>
        <mxCell id="Q0GtenQzzXFl3l4ukwLi-1" value="I2C Controller" style="whiteSpace=wrap;html=1;shadow=1;fontSize=18;fillColor=#0050ef;strokeColor=#001DBC;fontColor=#ffffff;" vertex="1" parent="1">
          <mxGeometry x="787" y="618.56" width="120" height="44.800000000000004" as="geometry" />
        </mxCell>
        <mxCell id="Q0GtenQzzXFl3l4ukwLi-19" style="edgeStyle=orthogonalEdgeStyle;rounded=0;orthogonalLoop=1;jettySize=auto;html=1;exitX=0.25;exitY=0;exitDx=0;exitDy=0;entryX=0.25;entryY=1;entryDx=0;entryDy=0;" edge="1" parent="1" source="Q0GtenQzzXFl3l4ukwLi-2" target="Q0GtenQzzXFl3l4ukwLi-1">
          <mxGeometry relative="1" as="geometry" />
        </mxCell>
        <mxCell id="Q0GtenQzzXFl3l4ukwLi-2" value="I2C_1" style="whiteSpace=wrap;html=1;shadow=1;fontSize=18;fillColor=#1ba1e2;strokeColor=#006EAF;fontColor=#ffffff;" vertex="1" parent="1">
          <mxGeometry x="787" y="686.5066666666667" width="120" height="44.800000000000004" as="geometry" />
        </mxCell>
        <mxCell id="Q0GtenQzzXFl3l4ukwLi-20" style="edgeStyle=orthogonalEdgeStyle;rounded=0;orthogonalLoop=1;jettySize=auto;html=1;exitX=0.75;exitY=1;exitDx=0;exitDy=0;entryX=0.75;entryY=0;entryDx=0;entryDy=0;" edge="1" parent="1" source="Q0GtenQzzXFl3l4ukwLi-1" target="Q0GtenQzzXFl3l4ukwLi-2">
          <mxGeometry relative="1" as="geometry" />
        </mxCell>
        <mxCell id="Q0GtenQzzXFl3l4ukwLi-3" value="FDCAN Controller" style="whiteSpace=wrap;html=1;shadow=1;fontSize=18;fillColor=#0050ef;strokeColor=#001DBC;fontColor=#ffffff;" vertex="1" parent="1">
          <mxGeometry x="922" y="618.56" width="120" height="44.800000000000004" as="geometry" />
        </mxCell>
        <mxCell id="Q0GtenQzzXFl3l4ukwLi-4" value="FDCAN_1" style="whiteSpace=wrap;html=1;shadow=1;fontSize=18;fillColor=#1ba1e2;strokeColor=#006EAF;fontColor=#ffffff;" vertex="1" parent="1">
          <mxGeometry x="922" y="686.5066666666667" width="120" height="44.800000000000004" as="geometry" />
        </mxCell>
        <mxCell id="Q0GtenQzzXFl3l4ukwLi-8" value="GPIO" style="whiteSpace=wrap;html=1;shadow=1;fontSize=18;fillColor=#60a917;strokeColor=#2D7600;fontColor=#ffffff;" vertex="1" parent="1">
          <mxGeometry x="787" y="755.2" width="803" height="44.800000000000004" as="geometry" />
        </mxCell>
        <mxCell id="Q0GtenQzzXFl3l4ukwLi-9" value="SDMMC Controller" style="whiteSpace=wrap;html=1;shadow=1;fontSize=18;fillColor=#0050ef;strokeColor=#001DBC;fontColor=#ffffff;" vertex="1" parent="1">
          <mxGeometry x="1056" y="618.56" width="120" height="44.800000000000004" as="geometry" />
        </mxCell>
        <mxCell id="Q0GtenQzzXFl3l4ukwLi-10" value="SDMMC_1" style="whiteSpace=wrap;html=1;shadow=1;fontSize=18;fillColor=#1ba1e2;strokeColor=#006EAF;fontColor=#ffffff;" vertex="1" parent="1">
          <mxGeometry x="1056" y="686.5066666666667" width="120" height="44.800000000000004" as="geometry" />
        </mxCell>
        <mxCell id="Q0GtenQzzXFl3l4ukwLi-11" value="ADC_1" style="whiteSpace=wrap;html=1;shadow=1;fontSize=18;fillColor=#1ba1e2;strokeColor=#006EAF;fontColor=#ffffff;" vertex="1" parent="1">
          <mxGeometry x="1196" y="686.5066666666667" width="120" height="44.800000000000004" as="geometry" />
        </mxCell>
        <mxCell id="Q0GtenQzzXFl3l4ukwLi-12" style="edgeStyle=orthogonalEdgeStyle;rounded=0;orthogonalLoop=1;jettySize=auto;html=1;exitX=0.25;exitY=0;exitDx=0;exitDy=0;entryX=0.046;entryY=1.002;entryDx=0;entryDy=0;entryPerimeter=0;" edge="1" parent="1" source="Q0GtenQzzXFl3l4ukwLi-1" target="3a17f1ce550125da-2">
          <mxGeometry relative="1" as="geometry" />
        </mxCell>
        <mxCell id="Q0GtenQzzXFl3l4ukwLi-13" style="edgeStyle=orthogonalEdgeStyle;rounded=0;orthogonalLoop=1;jettySize=auto;html=1;entryX=0.75;entryY=0;entryDx=0;entryDy=0;" edge="1" parent="1" target="Q0GtenQzzXFl3l4ukwLi-1">
          <mxGeometry relative="1" as="geometry">
            <mxPoint x="877" y="578.9866666666667" as="sourcePoint" />
            <Array as="points">
              <mxPoint x="877" y="576" />
            </Array>
          </mxGeometry>
        </mxCell>
        <mxCell id="Q0GtenQzzXFl3l4ukwLi-16" value="Output Driver" style="whiteSpace=wrap;html=1;shadow=1;fontSize=18;fillColor=#1ba1e2;strokeColor=#006EAF;fontColor=#ffffff;" vertex="1" parent="1">
          <mxGeometry x="1335" y="686.5066666666667" width="120" height="44.800000000000004" as="geometry" />
        </mxCell>
        <mxCell id="Q0GtenQzzXFl3l4ukwLi-21" style="edgeStyle=orthogonalEdgeStyle;rounded=0;orthogonalLoop=1;jettySize=auto;html=1;exitX=0.75;exitY=1;exitDx=0;exitDy=0;entryX=0.75;entryY=0;entryDx=0;entryDy=0;" edge="1" parent="1">
          <mxGeometry relative="1" as="geometry">
            <mxPoint x="877" y="731.3066666666666" as="sourcePoint" />
            <mxPoint x="877" y="754.4533333333334" as="targetPoint" />
          </mxGeometry>
        </mxCell>
        <mxCell id="Q0GtenQzzXFl3l4ukwLi-22" style="edgeStyle=orthogonalEdgeStyle;rounded=0;orthogonalLoop=1;jettySize=auto;html=1;exitX=0.25;exitY=0;exitDx=0;exitDy=0;entryX=0.25;entryY=1;entryDx=0;entryDy=0;" edge="1" parent="1">
          <mxGeometry relative="1" as="geometry">
            <mxPoint x="817" y="754.4533333333334" as="sourcePoint" />
            <mxPoint x="817" y="731.3066666666666" as="targetPoint" />
          </mxGeometry>
        </mxCell>
        <mxCell id="Q0GtenQzzXFl3l4ukwLi-25" value="" style="group" vertex="1" connectable="0" parent="1">
          <mxGeometry x="952" y="663.36" width="60" height="23.14666666666667" as="geometry" />
        </mxCell>
        <mxCell id="Q0GtenQzzXFl3l4ukwLi-23" style="edgeStyle=orthogonalEdgeStyle;rounded=0;orthogonalLoop=1;jettySize=auto;html=1;exitX=0.75;exitY=1;exitDx=0;exitDy=0;entryX=0.75;entryY=0;entryDx=0;entryDy=0;" edge="1" parent="Q0GtenQzzXFl3l4ukwLi-25">
          <mxGeometry relative="1" as="geometry">
            <mxPoint x="60" as="sourcePoint" />
            <mxPoint x="60" y="23.14666666666667" as="targetPoint" />
          </mxGeometry>
        </mxCell>
        <mxCell id="Q0GtenQzzXFl3l4ukwLi-24" style="edgeStyle=orthogonalEdgeStyle;rounded=0;orthogonalLoop=1;jettySize=auto;html=1;exitX=0.25;exitY=0;exitDx=0;exitDy=0;entryX=0.25;entryY=1;entryDx=0;entryDy=0;" edge="1" parent="Q0GtenQzzXFl3l4ukwLi-25">
          <mxGeometry relative="1" as="geometry">
            <mxPoint y="23.14666666666667" as="sourcePoint" />
            <mxPoint as="targetPoint" />
          </mxGeometry>
        </mxCell>
        <mxCell id="Q0GtenQzzXFl3l4ukwLi-28" value="" style="group" vertex="1" connectable="0" parent="1">
          <mxGeometry x="952" y="731.3066666666666" width="60" height="23.14666666666667" as="geometry" />
        </mxCell>
        <mxCell id="Q0GtenQzzXFl3l4ukwLi-29" style="edgeStyle=orthogonalEdgeStyle;rounded=0;orthogonalLoop=1;jettySize=auto;html=1;exitX=0.75;exitY=1;exitDx=0;exitDy=0;entryX=0.75;entryY=0;entryDx=0;entryDy=0;" edge="1" parent="Q0GtenQzzXFl3l4ukwLi-28">
          <mxGeometry relative="1" as="geometry">
            <mxPoint x="60" as="sourcePoint" />
            <mxPoint x="60" y="23.14666666666667" as="targetPoint" />
          </mxGeometry>
        </mxCell>
        <mxCell id="Q0GtenQzzXFl3l4ukwLi-30" style="edgeStyle=orthogonalEdgeStyle;rounded=0;orthogonalLoop=1;jettySize=auto;html=1;exitX=0.25;exitY=0;exitDx=0;exitDy=0;entryX=0.25;entryY=1;entryDx=0;entryDy=0;" edge="1" parent="Q0GtenQzzXFl3l4ukwLi-28">
          <mxGeometry relative="1" as="geometry">
            <mxPoint y="23.14666666666667" as="sourcePoint" />
            <mxPoint as="targetPoint" />
          </mxGeometry>
        </mxCell>
        <mxCell id="Q0GtenQzzXFl3l4ukwLi-31" value="" style="group" vertex="1" connectable="0" parent="1">
          <mxGeometry x="1086" y="663.36" width="60" height="23.14666666666667" as="geometry" />
        </mxCell>
        <mxCell id="Q0GtenQzzXFl3l4ukwLi-32" style="edgeStyle=orthogonalEdgeStyle;rounded=0;orthogonalLoop=1;jettySize=auto;html=1;exitX=0.75;exitY=1;exitDx=0;exitDy=0;entryX=0.75;entryY=0;entryDx=0;entryDy=0;" edge="1" parent="Q0GtenQzzXFl3l4ukwLi-31">
          <mxGeometry relative="1" as="geometry">
            <mxPoint x="60" as="sourcePoint" />
            <mxPoint x="60" y="23.14666666666667" as="targetPoint" />
          </mxGeometry>
        </mxCell>
        <mxCell id="Q0GtenQzzXFl3l4ukwLi-33" style="edgeStyle=orthogonalEdgeStyle;rounded=0;orthogonalLoop=1;jettySize=auto;html=1;exitX=0.25;exitY=0;exitDx=0;exitDy=0;entryX=0.25;entryY=1;entryDx=0;entryDy=0;" edge="1" parent="Q0GtenQzzXFl3l4ukwLi-31">
          <mxGeometry relative="1" as="geometry">
            <mxPoint y="23.14666666666667" as="sourcePoint" />
            <mxPoint as="targetPoint" />
          </mxGeometry>
        </mxCell>
        <mxCell id="Q0GtenQzzXFl3l4ukwLi-34" value="" style="group" vertex="1" connectable="0" parent="1">
          <mxGeometry x="1086" y="732.0533333333333" width="70" height="23.14666666666667" as="geometry" />
        </mxCell>
        <mxCell id="Q0GtenQzzXFl3l4ukwLi-35" style="edgeStyle=orthogonalEdgeStyle;rounded=0;orthogonalLoop=1;jettySize=auto;html=1;exitX=0.75;exitY=1;exitDx=0;exitDy=0;entryX=0.75;entryY=0;entryDx=0;entryDy=0;" edge="1" parent="Q0GtenQzzXFl3l4ukwLi-34">
          <mxGeometry relative="1" as="geometry">
            <mxPoint x="60" as="sourcePoint" />
            <mxPoint x="60" y="23.14666666666667" as="targetPoint" />
          </mxGeometry>
        </mxCell>
        <mxCell id="Q0GtenQzzXFl3l4ukwLi-36" style="edgeStyle=orthogonalEdgeStyle;rounded=0;orthogonalLoop=1;jettySize=auto;html=1;exitX=0.25;exitY=0;exitDx=0;exitDy=0;entryX=0.25;entryY=1;entryDx=0;entryDy=0;" edge="1" parent="Q0GtenQzzXFl3l4ukwLi-34">
          <mxGeometry relative="1" as="geometry">
            <mxPoint y="23.14666666666667" as="sourcePoint" />
            <mxPoint as="targetPoint" />
          </mxGeometry>
        </mxCell>
        <mxCell id="Q0GtenQzzXFl3l4ukwLi-86" value="" style="group" vertex="1" connectable="0" parent="Q0GtenQzzXFl3l4ukwLi-34">
          <mxGeometry x="10" width="60" height="23.14666666666667" as="geometry" />
        </mxCell>
        <mxCell id="Q0GtenQzzXFl3l4ukwLi-87" style="edgeStyle=orthogonalEdgeStyle;rounded=0;orthogonalLoop=1;jettySize=auto;html=1;exitX=0.75;exitY=1;exitDx=0;exitDy=0;entryX=0.75;entryY=0;entryDx=0;entryDy=0;" edge="1" parent="Q0GtenQzzXFl3l4ukwLi-86">
          <mxGeometry relative="1" as="geometry">
            <mxPoint x="60" as="sourcePoint" />
            <mxPoint x="60" y="23.14666666666667" as="targetPoint" />
          </mxGeometry>
        </mxCell>
        <mxCell id="Q0GtenQzzXFl3l4ukwLi-88" style="edgeStyle=orthogonalEdgeStyle;rounded=0;orthogonalLoop=1;jettySize=auto;html=1;exitX=0.25;exitY=0;exitDx=0;exitDy=0;entryX=0.25;entryY=1;entryDx=0;entryDy=0;" edge="1" parent="Q0GtenQzzXFl3l4ukwLi-86">
          <mxGeometry relative="1" as="geometry">
            <mxPoint y="23.14666666666667" as="sourcePoint" />
            <mxPoint as="targetPoint" />
          </mxGeometry>
        </mxCell>
        <mxCell id="Q0GtenQzzXFl3l4ukwLi-40" value="Interrupt Controller" style="whiteSpace=wrap;html=1;shadow=1;fontSize=18;fillColor=#0050ef;strokeColor=#001DBC;fontColor=#ffffff;" vertex="1" parent="1">
          <mxGeometry x="1470" y="618.56" width="120" height="44.800000000000004" as="geometry" />
        </mxCell>
        <mxCell id="Q0GtenQzzXFl3l4ukwLi-42" style="edgeStyle=orthogonalEdgeStyle;rounded=0;orthogonalLoop=1;jettySize=auto;html=1;exitX=0.5;exitY=0;exitDx=0;exitDy=0;entryX=0.5;entryY=0;entryDx=0;entryDy=0;" edge="1" parent="1" source="Q0GtenQzzXFl3l4ukwLi-1" target="Q0GtenQzzXFl3l4ukwLi-40">
          <mxGeometry relative="1" as="geometry">
            <mxPoint x="1180" y="586.4533333333334" as="targetPoint" />
            <Array as="points">
              <mxPoint x="847" y="601.3866666666667" />
              <mxPoint x="1530" y="601.3866666666667" />
            </Array>
          </mxGeometry>
        </mxCell>
        <mxCell id="Q0GtenQzzXFl3l4ukwLi-41" style="edgeStyle=orthogonalEdgeStyle;rounded=0;orthogonalLoop=1;jettySize=auto;html=1;exitX=0.925;exitY=0.006;exitDx=0;exitDy=0;entryX=0.5;entryY=1;entryDx=0;entryDy=0;exitPerimeter=0;" edge="1" parent="1" source="Q0GtenQzzXFl3l4ukwLi-8" target="Q0GtenQzzXFl3l4ukwLi-40">
          <mxGeometry relative="1" as="geometry" />
        </mxCell>
        <mxCell id="Q0GtenQzzXFl3l4ukwLi-44" value="" style="group" vertex="1" connectable="0" parent="1">
          <mxGeometry x="950" y="578.9866666666667" width="60" height="41.06666666666667" as="geometry" />
        </mxCell>
        <mxCell id="Q0GtenQzzXFl3l4ukwLi-45" style="edgeStyle=orthogonalEdgeStyle;rounded=0;orthogonalLoop=1;jettySize=auto;html=1;exitX=0.286;exitY=1.005;exitDx=0;exitDy=0;entryX=0.75;entryY=0;entryDx=0;entryDy=0;exitPerimeter=0;" edge="1" parent="Q0GtenQzzXFl3l4ukwLi-44" source="3a17f1ce550125da-2">
          <mxGeometry relative="1" as="geometry">
            <mxPoint x="60" as="sourcePoint" />
            <mxPoint x="60" y="41.06666666666667" as="targetPoint" />
          </mxGeometry>
        </mxCell>
        <mxCell id="Q0GtenQzzXFl3l4ukwLi-46" style="edgeStyle=orthogonalEdgeStyle;rounded=0;orthogonalLoop=1;jettySize=auto;html=1;exitX=0.25;exitY=0;exitDx=0;exitDy=0;entryX=0.212;entryY=1.005;entryDx=0;entryDy=0;entryPerimeter=0;" edge="1" parent="Q0GtenQzzXFl3l4ukwLi-44" target="3a17f1ce550125da-2">
          <mxGeometry relative="1" as="geometry">
            <mxPoint y="41.06666666666667" as="sourcePoint" />
            <mxPoint as="targetPoint" />
          </mxGeometry>
        </mxCell>
        <mxCell id="Q0GtenQzzXFl3l4ukwLi-49" value="" style="group" vertex="1" connectable="0" parent="1">
          <mxGeometry x="1086" y="576.7466666666667" width="60" height="41.06666666666667" as="geometry" />
        </mxCell>
        <mxCell id="Q0GtenQzzXFl3l4ukwLi-50" style="edgeStyle=orthogonalEdgeStyle;rounded=0;orthogonalLoop=1;jettySize=auto;html=1;exitX=0.286;exitY=1.005;exitDx=0;exitDy=0;entryX=0.75;entryY=0;entryDx=0;entryDy=0;exitPerimeter=0;" edge="1" parent="Q0GtenQzzXFl3l4ukwLi-49">
          <mxGeometry relative="1" as="geometry">
            <mxPoint x="60" as="sourcePoint" />
            <mxPoint x="60" y="41.06666666666667" as="targetPoint" />
          </mxGeometry>
        </mxCell>
        <mxCell id="Q0GtenQzzXFl3l4ukwLi-51" style="edgeStyle=orthogonalEdgeStyle;rounded=0;orthogonalLoop=1;jettySize=auto;html=1;exitX=0.25;exitY=0;exitDx=0;exitDy=0;entryX=0.212;entryY=1.005;entryDx=0;entryDy=0;entryPerimeter=0;" edge="1" parent="Q0GtenQzzXFl3l4ukwLi-49">
          <mxGeometry relative="1" as="geometry">
            <mxPoint y="41.06666666666667" as="sourcePoint" />
            <mxPoint as="targetPoint" />
          </mxGeometry>
        </mxCell>
        <mxCell id="Q0GtenQzzXFl3l4ukwLi-43" style="edgeStyle=orthogonalEdgeStyle;rounded=0;orthogonalLoop=1;jettySize=auto;html=1;exitX=0.5;exitY=0;exitDx=0;exitDy=0;entryX=0.5;entryY=0;entryDx=0;entryDy=0;" edge="1" parent="1" source="Q0GtenQzzXFl3l4ukwLi-3" target="Q0GtenQzzXFl3l4ukwLi-40">
          <mxGeometry relative="1" as="geometry">
            <mxPoint x="982" y="601.3866666666667" as="targetPoint" />
            <Array as="points">
              <mxPoint x="982" y="601.3866666666667" />
              <mxPoint x="1530" y="601.3866666666667" />
            </Array>
          </mxGeometry>
        </mxCell>
        <mxCell id="Q0GtenQzzXFl3l4ukwLi-52" style="edgeStyle=orthogonalEdgeStyle;rounded=0;orthogonalLoop=1;jettySize=auto;html=1;exitX=0.584;exitY=0.001;exitDx=0;exitDy=0;entryX=0.5;entryY=1;entryDx=0;entryDy=0;exitPerimeter=0;" edge="1" parent="1" source="Q0GtenQzzXFl3l4ukwLi-8" target="Q0GtenQzzXFl3l4ukwLi-11">
          <mxGeometry relative="1" as="geometry" />
        </mxCell>
        <mxCell id="Q0GtenQzzXFl3l4ukwLi-53" style="edgeStyle=orthogonalEdgeStyle;rounded=0;orthogonalLoop=1;jettySize=auto;html=1;exitX=0.5;exitY=0;exitDx=0;exitDy=0;entryX=0.593;entryY=1.007;entryDx=0;entryDy=0;entryPerimeter=0;" edge="1" parent="1" source="Q0GtenQzzXFl3l4ukwLi-11" target="3a17f1ce550125da-2">
          <mxGeometry relative="1" as="geometry" />
        </mxCell>
        <mxCell id="Q0GtenQzzXFl3l4ukwLi-48" style="edgeStyle=orthogonalEdgeStyle;rounded=0;orthogonalLoop=1;jettySize=auto;html=1;exitX=0.5;exitY=0;exitDx=0;exitDy=0;entryX=0.5;entryY=0;entryDx=0;entryDy=0;" edge="1" parent="1" source="Q0GtenQzzXFl3l4ukwLi-9" target="Q0GtenQzzXFl3l4ukwLi-40">
          <mxGeometry relative="1" as="geometry">
            <Array as="points">
              <mxPoint x="1116" y="601.3866666666667" />
              <mxPoint x="1530" y="601.3866666666667" />
            </Array>
          </mxGeometry>
        </mxCell>
        <mxCell id="Q0GtenQzzXFl3l4ukwLi-54" style="edgeStyle=orthogonalEdgeStyle;rounded=0;orthogonalLoop=1;jettySize=auto;html=1;exitX=0.5;exitY=1;exitDx=0;exitDy=0;entryX=0.758;entryY=-0.013;entryDx=0;entryDy=0;entryPerimeter=0;" edge="1" parent="1" source="Q0GtenQzzXFl3l4ukwLi-16" target="Q0GtenQzzXFl3l4ukwLi-8">
          <mxGeometry relative="1" as="geometry" />
        </mxCell>
        <mxCell id="Q0GtenQzzXFl3l4ukwLi-56" style="edgeStyle=orthogonalEdgeStyle;rounded=0;orthogonalLoop=1;jettySize=auto;html=1;exitX=0.765;exitY=1.003;exitDx=0;exitDy=0;entryX=0.5;entryY=0;entryDx=0;entryDy=0;exitPerimeter=0;" edge="1" parent="1" source="3a17f1ce550125da-2" target="Q0GtenQzzXFl3l4ukwLi-16">
          <mxGeometry relative="1" as="geometry" />
        </mxCell>
        <mxCell id="Q0GtenQzzXFl3l4ukwLi-57" style="edgeStyle=orthogonalEdgeStyle;rounded=0;orthogonalLoop=1;jettySize=auto;html=1;exitX=0.75;exitY=0;exitDx=0;exitDy=0;entryX=0.97;entryY=1.017;entryDx=0;entryDy=0;entryPerimeter=0;" edge="1" parent="1" source="Q0GtenQzzXFl3l4ukwLi-40" target="3a17f1ce550125da-2">
          <mxGeometry relative="1" as="geometry">
            <Array as="points">
              <mxPoint x="1559" y="618.56" />
            </Array>
          </mxGeometry>
        </mxCell>
        <mxCell id="Q0GtenQzzXFl3l4ukwLi-79" value="RAM" style="whiteSpace=wrap;html=1;shadow=1;fontSize=18;fillColor=#f0a30a;strokeColor=#E6D0DE;fontColor=#000000;" vertex="1" parent="1">
          <mxGeometry x="1320" y="280" width="263" height="168.12" as="geometry" />
        </mxCell>
        <mxCell id="Q0GtenQzzXFl3l4ukwLi-95" value="" style="group" vertex="1" connectable="0" parent="1">
          <mxGeometry x="1410" y="450.0033333333333" width="70" height="23.146666666666647" as="geometry" />
        </mxCell>
        <mxCell id="Q0GtenQzzXFl3l4ukwLi-89" value="" style="group" vertex="1" connectable="0" parent="Q0GtenQzzXFl3l4ukwLi-95">
          <mxGeometry x="18" y="-2" width="70" height="23.14666666666667" as="geometry" />
        </mxCell>
        <mxCell id="Q0GtenQzzXFl3l4ukwLi-90" style="edgeStyle=orthogonalEdgeStyle;rounded=0;orthogonalLoop=1;jettySize=auto;html=1;exitX=0.75;exitY=1;exitDx=0;exitDy=0;entryX=0.75;entryY=0;entryDx=0;entryDy=0;" edge="1" parent="Q0GtenQzzXFl3l4ukwLi-89">
          <mxGeometry relative="1" as="geometry">
            <mxPoint x="60" as="sourcePoint" />
            <mxPoint x="60" y="23.14666666666667" as="targetPoint" />
          </mxGeometry>
        </mxCell>
        <mxCell id="Q0GtenQzzXFl3l4ukwLi-91" style="edgeStyle=orthogonalEdgeStyle;rounded=0;orthogonalLoop=1;jettySize=auto;html=1;exitX=0.25;exitY=0;exitDx=0;exitDy=0;entryX=0.25;entryY=1;entryDx=0;entryDy=0;" edge="1" parent="Q0GtenQzzXFl3l4ukwLi-89">
          <mxGeometry relative="1" as="geometry">
            <mxPoint y="23.14666666666667" as="sourcePoint" />
            <mxPoint as="targetPoint" />
          </mxGeometry>
        </mxCell>
        <mxCell id="Q0GtenQzzXFl3l4ukwLi-92" value="" style="group" vertex="1" connectable="0" parent="Q0GtenQzzXFl3l4ukwLi-95">
          <mxGeometry x="28" y="-2" width="60" height="23.14666666666667" as="geometry" />
        </mxCell>
        <mxCell id="Q0GtenQzzXFl3l4ukwLi-93" style="edgeStyle=orthogonalEdgeStyle;rounded=0;orthogonalLoop=1;jettySize=auto;html=1;exitX=0.75;exitY=1;exitDx=0;exitDy=0;entryX=0.75;entryY=0;entryDx=0;entryDy=0;" edge="1" parent="Q0GtenQzzXFl3l4ukwLi-92">
          <mxGeometry relative="1" as="geometry">
            <mxPoint x="60" as="sourcePoint" />
            <mxPoint x="60" y="23.14666666666667" as="targetPoint" />
          </mxGeometry>
        </mxCell>
        <mxCell id="Q0GtenQzzXFl3l4ukwLi-94" style="edgeStyle=orthogonalEdgeStyle;rounded=0;orthogonalLoop=1;jettySize=auto;html=1;exitX=0.25;exitY=0;exitDx=0;exitDy=0;entryX=0.25;entryY=1;entryDx=0;entryDy=0;" edge="1" parent="Q0GtenQzzXFl3l4ukwLi-92">
          <mxGeometry relative="1" as="geometry">
            <mxPoint y="23.14666666666667" as="sourcePoint" />
            <mxPoint as="targetPoint" />
          </mxGeometry>
        </mxCell>
      </root>
    </mxGraphModel>
  </diagram>
</mxfile>
